<svg xmlns="http://www.w3.org/2000/svg" width="640" height="480" viewBox="0 0 640 480">
<defs><linearGradient id="bg" x1="0" y1="0" x2="1" y2="1"><stop offset="0" stop-color="#d9ffd9"/><stop offset="1" stop-color="#a8e9d6"/></linearGradient><filter id="shadow" x="-30%" y="-30%" width="160%" height="160%"><feDropShadow dx="0" dy="16" stdDeviation="8" flood-color="#344875" flood-opacity=".28"/></filter></defs>
<rect width="640" height="480" rx="42" fill="url(#bg)"/>
<circle cx="92" cy="90" r="54" fill="#fff" fill-opacity=".32"/><circle cx="552" cy="108" r="34" fill="#fff" fill-opacity=".28"/>
<text x="94" y="142" text-anchor="middle" font-size="52">🍃</text><text x="546" y="388" text-anchor="middle" font-size="52">🧺</text>

<g filter="url(#shadow)"><path d="M74 354 C170 306 254 318 330 347 C409 377 487 350 566 296" fill="none" stroke="#7b5131" stroke-width="17" stroke-linecap="round"/>
<path d="M158 326 C124 284 89 286 62 316 C109 319 133 336 157 357 M447 348 C472 302 510 292 544 313 C508 329 482 349 461 373" fill="#4b9355" stroke="#3b8648" stroke-width="7"/><g transform="rotate(-12 320 260) scale(0.68)"><circle cx="267" cy="245" r="42" fill="#4e4a93" stroke="#2e2b62" stroke-width="6"/><circle cx="322" cy="218" r="50" fill="#4e4a93" stroke="#2e2b62" stroke-width="6"/><circle cx="377" cy="246" r="43" fill="#4e4a93" stroke="#2e2b62" stroke-width="6"/><circle cx="292" cy="297" r="42" fill="#4e4a93" stroke="#2e2b62" stroke-width="6"/><circle cx="350" cy="300" r="43" fill="#4e4a93" stroke="#2e2b62" stroke-width="6"/><circle cx="307" cy="211" r="10" fill="#fff" fill-opacity=".55"/><path d="M315 177 Q300 143 269 153" fill="none" stroke="#4b9355" stroke-width="12" stroke-linecap="round"/></g><g transform="rotate(12 320 260) scale(0.46)"><circle cx="267" cy="245" r="42" fill="#4e4a93" stroke="#2e2b62" stroke-width="6"/><circle cx="322" cy="218" r="50" fill="#4e4a93" stroke="#2e2b62" stroke-width="6"/><circle cx="377" cy="246" r="43" fill="#4e4a93" stroke="#2e2b62" stroke-width="6"/><circle cx="292" cy="297" r="42" fill="#4e4a93" stroke="#2e2b62" stroke-width="6"/><circle cx="350" cy="300" r="43" fill="#4e4a93" stroke="#2e2b62" stroke-width="6"/><circle cx="307" cy="211" r="10" fill="#fff" fill-opacity=".55"/><path d="M315 177 Q300 143 269 153" fill="none" stroke="#4b9355" stroke-width="12" stroke-linecap="round"/></g></g>
<path d="M62 406 Q150 368 230 405 T398 405 T578 406" fill="none" stroke="#fff" stroke-opacity=".38" stroke-width="8" stroke-linecap="round"/>
</svg>