<svg xmlns="http://www.w3.org/2000/svg" width="640" height="480" viewBox="0 0 640 480">
<defs><linearGradient id="bg" x1="0" y1="0" x2="1" y2="1"><stop offset="0" stop-color="#fff4b5"/><stop offset="1" stop-color="#ffd49b"/></linearGradient><filter id="shadow" x="-30%" y="-30%" width="160%" height="160%"><feDropShadow dx="0" dy="16" stdDeviation="8" flood-color="#344875" flood-opacity=".28"/></filter></defs>
<rect width="640" height="480" rx="42" fill="url(#bg)"/>
<circle cx="92" cy="90" r="54" fill="#fff" fill-opacity=".32"/><circle cx="552" cy="108" r="34" fill="#fff" fill-opacity=".28"/>
<text x="94" y="142" text-anchor="middle" font-size="52">🍃</text><text x="546" y="388" text-anchor="middle" font-size="52">🧺</text>

<g filter="url(#shadow)"><g transform="rotate(10 320 250) scale(0.64)"><path d="M250 194 l-35 -28" stroke="#a92f3b" stroke-width="5" stroke-linecap="round"/><path d="M290 162 l-15 -44" stroke="#a92f3b" stroke-width="5" stroke-linecap="round"/><path d="M338 162 l9 -44" stroke="#a92f3b" stroke-width="5" stroke-linecap="round"/><path d="M383 198 l31 -26" stroke="#a92f3b" stroke-width="5" stroke-linecap="round"/><path d="M230 250 l-45 0" stroke="#a92f3b" stroke-width="5" stroke-linecap="round"/><path d="M405 260 l42 5" stroke="#a92f3b" stroke-width="5" stroke-linecap="round"/><path d="M265 316 l-28 33" stroke="#a92f3b" stroke-width="5" stroke-linecap="round"/><path d="M330 335 l5 42" stroke="#a92f3b" stroke-width="5" stroke-linecap="round"/><path d="M383 309 l31 29" stroke="#a92f3b" stroke-width="5" stroke-linecap="round"/><circle cx="320" cy="250" r="96" fill="#e96055" stroke="#a92f3b" stroke-width="9"/><path d="M272 204 Q316 173 357 193" fill="none" stroke="#ffc1a7" stroke-width="10" stroke-linecap="round" opacity=".7"/></g><g transform="translate(-105 85) scale(.48)"><g transform="rotate(0 320 250) scale(1)"><path d="M250 194 l-35 -28" stroke="#a92f3b" stroke-width="5" stroke-linecap="round"/><path d="M290 162 l-15 -44" stroke="#a92f3b" stroke-width="5" stroke-linecap="round"/><path d="M338 162 l9 -44" stroke="#a92f3b" stroke-width="5" stroke-linecap="round"/><path d="M383 198 l31 -26" stroke="#a92f3b" stroke-width="5" stroke-linecap="round"/><path d="M230 250 l-45 0" stroke="#a92f3b" stroke-width="5" stroke-linecap="round"/><path d="M405 260 l42 5" stroke="#a92f3b" stroke-width="5" stroke-linecap="round"/><path d="M265 316 l-28 33" stroke="#a92f3b" stroke-width="5" stroke-linecap="round"/><path d="M330 335 l5 42" stroke="#a92f3b" stroke-width="5" stroke-linecap="round"/><path d="M383 309 l31 29" stroke="#a92f3b" stroke-width="5" stroke-linecap="round"/><circle cx="320" cy="250" r="96" fill="#e96055" stroke="#a92f3b" stroke-width="9"/><path d="M272 204 Q316 173 357 193" fill="none" stroke="#ffc1a7" stroke-width="10" stroke-linecap="round" opacity=".7"/></g></g><g transform="translate(105 93) scale(.48)"><g transform="rotate(-12 320 250) scale(1)"><path d="M250 194 l-35 -28" stroke="#a92f3b" stroke-width="5" stroke-linecap="round"/><path d="M290 162 l-15 -44" stroke="#a92f3b" stroke-width="5" stroke-linecap="round"/><path d="M338 162 l9 -44" stroke="#a92f3b" stroke-width="5" stroke-linecap="round"/><path d="M383 198 l31 -26" stroke="#a92f3b" stroke-width="5" stroke-linecap="round"/><path d="M230 250 l-45 0" stroke="#a92f3b" stroke-width="5" stroke-linecap="round"/><path d="M405 260 l42 5" stroke="#a92f3b" stroke-width="5" stroke-linecap="round"/><path d="M265 316 l-28 33" stroke="#a92f3b" stroke-width="5" stroke-linecap="round"/><path d="M330 335 l5 42" stroke="#a92f3b" stroke-width="5" stroke-linecap="round"/><path d="M383 309 l31 29" stroke="#a92f3b" stroke-width="5" stroke-linecap="round"/><circle cx="320" cy="250" r="96" fill="#e96055" stroke="#a92f3b" stroke-width="9"/><path d="M272 204 Q316 173 357 193" fill="none" stroke="#ffc1a7" stroke-width="10" stroke-linecap="round" opacity=".7"/></g></g></g>
<path d="M62 406 Q150 368 230 405 T398 405 T578 406" fill="none" stroke="#fff" stroke-opacity=".38" stroke-width="8" stroke-linecap="round"/>
</svg>