<svg xmlns="http://www.w3.org/2000/svg" width="640" height="480" viewBox="0 0 640 480">
<defs><linearGradient id="bg" x1="0" y1="0" x2="1" y2="1"><stop offset="0" stop-color="#d9ffd9"/><stop offset="1" stop-color="#a8e9d6"/></linearGradient><filter id="shadow" x="-30%" y="-30%" width="160%" height="160%"><feDropShadow dx="0" dy="16" stdDeviation="8" flood-color="#344875" flood-opacity=".28"/></filter></defs>
<rect width="640" height="480" rx="42" fill="url(#bg)"/>
<circle cx="92" cy="90" r="54" fill="#fff" fill-opacity=".32"/><circle cx="552" cy="108" r="34" fill="#fff" fill-opacity=".28"/>
<text x="94" y="142" text-anchor="middle" font-size="52">💧</text><text x="546" y="388" text-anchor="middle" font-size="52">🍃</text>
<g filter="url(#shadow)"><path d="M95 351 C176 297 258 318 326 345 C398 373 473 348 548 298" fill="none" stroke="#7c522f" stroke-width="17" stroke-linecap="round"/>
<path d="M177 320 C139 276 107 284 82 314 C121 318 145 334 168 354" fill="#64bb66" stroke="#3f8f4c" stroke-width="7"/>
<polygon points="328.0,82.0 360.9,172.7 457.3,176.0 381.3,235.3 407.9,328.0 328.0,274.0 248.1,328.0 274.7,235.3 198.7,176.0 295.1,172.7" fill="#ffc83d" stroke="#df8f22" stroke-width="9"/>
<polygon points="462.0,258.0 476.7,298.8 520.0,300.1 485.8,326.7 497.9,368.4 462.0,344.0 426.1,368.4 438.2,326.7 404.0,300.1 447.3,298.8" fill="#ffe36b" stroke="#df8f22" stroke-width="7"/>
<circle cx="303" cy="188" r="16" fill="#fff6b4" opacity=".86"/></g>
<path d="M62 406 Q150 368 230 405 T398 405 T578 406" fill="none" stroke="#fff" stroke-opacity=".38" stroke-width="8" stroke-linecap="round"/>
</svg>